# Blender v2.78 (sub 0) OBJ File: ''
# www.blender.org
mtllib untitled.mtl
o Teapot001
v 7.000000 -0.000001 12.000000
v 4.970000 -4.970000 12.000000
v 4.981100 -4.981101 12.492200
v 7.015600 -0.000001 12.492200
v 5.325000 -5.325000 12.000000
v 7.500000 -0.000001 12.000000
v 0.000000 -7.000000 12.000000
v 0.000000 -7.015601 12.492200
v 0.000000 -7.500000 12.000000
v -5.138700 -4.970000 12.000000
v -5.002200 -4.981101 12.492200
v -5.325000 -5.325000 12.000000
v -7.000000 -0.000001 12.000000
v -7.015600 -0.000001 12.492200
v -7.500000 -0.000001 12.000000
v -4.970000 4.969999 12.000000
v -4.981100 4.981100 12.492200
v -5.325000 5.324999 12.000000
v 0.000000 7.000000 12.000000
v 0.000000 7.015600 12.492200
v 0.000000 7.500000 12.000000
v 4.970000 4.969999 12.000000
v 4.981100 4.981100 12.492200
v 5.325000 5.324999 12.000000
v 6.545300 -6.545300 8.109400
v 9.218800 -0.000000 8.109400
v 7.100000 -7.100000 4.500000
v 10.000000 -0.000000 4.500000
v 0.000000 -9.218800 8.109400
v 0.000000 -10.000000 4.500000
v -6.545300 -6.545300 8.109400
v -7.100000 -7.100000 4.500000
v -9.218800 -0.000000 8.109400
v -10.000000 -0.000000 4.500000
v -6.545300 6.545300 8.109400
v -7.100000 7.100000 4.500000
v 0.000000 9.218800 8.109400
v 0.000000 10.000000 4.500000
v 6.545300 6.545300 8.109400
v 7.100000 7.100000 4.500000
v 6.212500 -6.212500 1.921900
v 8.750000 -0.000000 1.921900
v 5.325000 -5.325000 0.750000
v 7.500000 -0.000000 0.750000
v 0.000000 -8.750000 1.921900
v 0.000000 -7.500000 0.750000
v -6.212500 -6.212500 1.921900
v -5.325000 -5.325000 0.750000
v -8.750000 -0.000000 1.921900
v -7.500000 -0.000000 0.750000
v -6.212500 6.212500 1.921900
v -5.325000 5.325000 0.750000
v 0.000000 8.750000 1.921900
v 0.000000 7.500000 0.750000
v 6.212500 6.212500 1.921900
v 5.325000 5.325000 0.750000
v 4.559500 -4.559500 0.234400
v 6.421900 -0.000000 0.234400
v 0.000000 0.000000 0.000000
v 0.000000 -6.421900 0.234400
v -4.559500 -4.559500 0.234400
v -6.421900 -0.000000 0.234400
v -4.559500 4.559500 0.234400
v 0.000000 6.421900 0.234400
v 4.559500 4.559500 0.234400
v -8.000000 -0.000000 10.125000
v -7.750000 -1.125000 10.687500
v -12.593800 -1.125000 10.476600
v -12.062500 -0.000000 9.984400
v -14.250000 -1.125000 9.000000
v -13.500000 -0.000000 9.000000
v -7.500000 -0.000000 11.250000
v -13.125000 -0.000000 10.968800
v -15.000000 -0.000000 9.000000
v -7.750000 1.125000 10.687500
v -12.593800 1.125000 10.476600
v -14.250000 1.125000 9.000000
v -13.171900 -1.125000 6.269500
v -12.687500 -0.000000 6.750000
v -9.750000 -1.125000 3.750000
v -13.656300 -0.000000 5.789100
v -9.500000 -0.000000 3.000000
v -13.171900 1.125000 6.269500
v -9.750000 1.125000 3.750000
v 8.500000 -0.000000 7.125000
v 8.500000 -2.475000 5.062500
v 12.687500 -1.706200 8.109400
v 11.937500 -0.000000 9.000000
v 15.000000 -0.937501 12.000000
v 13.500000 -0.000001 12.000000
v 8.500000 -0.000000 3.000000
v 13.437500 -0.000000 7.218700
v 16.500000 -0.000001 12.000000
v 8.500000 2.475000 5.062500
v 12.687500 1.706200 8.109400
v 15.000000 0.937499 12.000000
v 15.632800 -0.750001 12.334000
v 14.125000 -0.000001 12.281300
v 15.000000 -0.562501 12.000000
v 14.000000 -0.000001 12.000000
v 17.140600 -0.000001 12.386700
v 16.000000 -0.000001 12.000000
v 15.632800 0.749999 12.334000
v 15.000000 0.562499 12.000000
v 1.155200 -1.155201 14.906300
v 1.625000 -0.000001 14.906300
v 0.000000 -0.000001 15.750000
v 0.710000 -0.710001 13.500000
v 1.000000 -0.000001 13.500000
v 0.000000 -1.625001 14.906300
v 0.000000 -1.000001 13.500000
v -1.155200 -1.155201 14.906300
v -0.710000 -0.710001 13.500000
v -1.625000 -0.000001 14.906300
v -1.000000 -0.000001 13.500000
v -1.155200 1.155199 14.906300
v -0.710000 0.709999 13.500000
v 0.000000 1.624999 14.906300
v 0.000000 0.999999 13.500000
v 1.155200 1.155199 14.906300
v 0.710000 0.709999 13.500000
v 2.928800 -2.928801 12.750000
v 4.125000 -0.000001 12.750000
v 4.615000 -4.615000 12.000000
v 6.500000 -0.000001 12.000000
v 0.000000 -4.125000 12.750000
v 0.000000 -6.500000 12.000000
v -2.928800 -2.928801 12.750000
v -4.615000 -4.615000 12.000000
v -4.125000 -0.000001 12.750000
v -6.500000 -0.000001 12.000000
v -2.928800 2.928800 12.750000
v -4.615000 4.614999 12.000000
v 0.000000 4.125000 12.750000
v 0.000000 6.500000 12.000000
v 2.928800 2.928800 12.750000
v 4.615000 4.614999 12.000000
vt 1.5000 2.0000
vt 2.0000 1.9500
vt 2.0000 2.0000
vt 1.5000 1.9500
vt 2.0000 1.9000
vt 1.0000 1.9500
vt 1.0000 1.9000
vt 1.5000 1.9000
vt 1.0000 2.0000
vt 0.5000 1.9500
vt 0.5000 1.9000
vt 0.5000 2.0000
vt 0.0000 1.9500
vt 0.0000 1.9000
vt 1.5000 2.0000
vt 2.0000 1.9500
vt 2.0000 2.0000
vt 1.5000 1.9500
vt 2.0000 1.9000
vt 1.0000 1.9500
vt 1.0000 1.9000
vt 1.5000 1.9000
vt 0.5000 2.0000
vt 1.0000 2.0000
vt 0.5000 1.9500
vt 0.0000 1.9500
vt 0.0000 1.9000
vt 0.5000 1.9000
vt 2.0000 1.4500
vt 1.5000 1.4500
vt 2.0000 1.0000
vt 1.0000 1.4500
vt 1.0000 1.0000
vt 1.5000 1.0000
vt 0.5000 1.4500
vt 0.0000 1.4500
vt 0.0000 1.0000
vt 0.5000 1.0000
vt 2.0000 1.4500
vt 1.5000 1.4500
vt 2.0000 1.0000
vt 1.0000 1.4500
vt 1.0000 1.0000
vt 1.5000 1.0000
vt 0.5000 1.4500
vt 0.0000 1.4500
vt 0.0000 1.0000
vt 0.5000 1.0000
vt 1.5000 0.7000
vt 2.0000 0.7000
vt 1.5000 0.4000
vt 2.0000 0.4000
vt 1.0000 0.7000
vt 0.5000 0.7000
vt 0.5000 0.4000
vt 1.0000 0.4000
vt 0.0000 0.7000
vt 1.5000 0.7000
vt 2.0000 0.7000
vt 1.5000 0.4000
vt 2.0000 0.4000
vt 1.0000 0.7000
vt 0.5000 0.7000
vt 0.5000 0.4000
vt 1.0000 0.4000
vt 0.0000 0.7000
vt 1.5000 0.2000
vt 2.0000 0.2000
vt 1.5000 0.0000
vt 1.0000 0.2000
vt 1.0000 0.0000
vt 0.5000 0.2000
vt 0.5000 0.0000
vt 0.0000 0.4000
vt 0.0000 0.2000
vt 0.0000 0.0000
vt 1.5000 0.2000
vt 2.0000 0.2000
vt 1.0000 0.2000
vt 0.5000 0.2000
vt 0.0000 0.4000
vt 0.0000 0.2000
vt 0.7500 1.0000
vt 1.0000 0.7500
vt 1.0000 1.0000
vt 0.7500 0.7500
vt 1.0000 0.5000
vt 0.5000 1.0000
vt 0.5000 0.7500
vt 0.7500 0.5000
vt 0.2500 0.7500
vt 0.2500 0.5000
vt 0.5000 0.5000
vt 0.2500 1.0000
vt 0.0000 0.7500
vt 0.0000 0.5000
vt 1.0000 0.2500
vt 0.7500 0.2500
vt 1.0000 0.0000
vt 0.5000 0.2500
vt 0.7500 0.0000
vt 0.2500 0.0000
vt 0.5000 0.0000
vt 0.0000 0.2500
vt 0.2500 0.2500
vt 0.0000 0.0000
vt 0.5000 0.0000
vt 0.7500 0.4500
vt 0.5000 0.4500
vt 0.5000 0.9000
vt 0.7500 0.0000
vt 1.0000 0.4500
vt 0.7500 0.9000
vt 0.2500 0.0000
vt 0.0000 0.4500
vt 0.0000 0.0000
vt 0.2500 0.9000
vt 0.0000 0.9000
vt 0.2500 0.4500
vt 0.5000 0.9500
vt 0.7500 1.0000
vt 0.5000 1.0000
vt 1.0000 0.9000
vt 0.7500 0.9500
vt 1.0000 1.0000
vt 0.2500 0.9500
vt 0.0000 0.9500
vt 0.0000 1.0000
vt 0.2500 1.0000
vt 0.7500 0.5000
vt 1.0000 0.5000
vt 1.0000 1.0000
vt 0.7500 0.0000
vt 1.0000 0.0000
vt 0.5000 0.5000
vt 0.7500 1.0000
vt 0.2500 0.5000
vt 0.5000 1.0000
vt 0.2500 0.0000
vt 0.5000 0.0000
vt 0.0000 0.5000
vt 0.2500 1.0000
vt 0.7500 0.5000
vt 1.0000 0.5000
vt 0.7500 0.0000
vt 1.0000 0.0000
vt 0.5000 0.5000
vt 0.2500 0.5000
vt 0.2500 0.0000
vt 0.5000 0.0000
vt 0.0000 0.5000
vt 0.7500 1.0000
vt 1.0000 0.5000
vt 1.0000 1.0000
vt 0.7500 0.5000
vt 1.0000 0.0000
vt 0.5000 0.5000
vt 0.5000 0.0000
vt 0.7500 0.0000
vt 0.2500 1.0000
vt 0.5000 1.0000
vt 0.2500 0.5000
vt 0.0000 0.5000
vt 0.0000 0.0000
vt 0.2500 0.0000
vt 0.7500 1.0000
vt 1.0000 0.5000
vt 1.0000 1.0000
vt 0.7500 0.5000
vt 1.0000 0.0000
vt 0.5000 0.5000
vt 0.5000 0.0000
vt 0.7500 0.0000
vt 0.2500 1.0000
vt 0.5000 1.0000
vt 0.2500 0.5000
vt 0.0000 0.5000
vt 0.0000 0.0000
vt 0.2500 0.0000
vt 0.0000 2.0000
vt 0.0000 2.0000
vt 0.0000 1.0000
vt 1.0000 0.0000
vt 1.0000 0.9500
vt 0.0000 0.0000
vt 0.0000 0.0000
vt 0.0000 1.0000
vt 0.0000 1.0000
vn -0.7067 0.7067 0.0319
vn -0.1417 0.0000 0.9899
vn -0.9995 -0.0000 0.0317
vn -0.0966 0.0966 0.9906
vn 0.8400 0.0000 0.5425
vn 0.0023 0.1379 0.9904
vn 0.0001 -0.8395 0.5434
vn 0.5936 -0.5936 0.5435
vn 0.0012 0.9985 0.0541
vn 0.0678 0.2385 0.9688
vn -0.5962 -0.5984 0.5352
vn 0.7018 0.6574 -0.2743
vn 0.1482 -0.0144 0.9889
vn -0.8391 0.0012 0.5439
vn 0.7067 -0.7067 0.0319
vn 0.9943 -0.0201 0.1051
vn 0.0966 -0.0966 0.9906
vn 0.0000 -0.1417 0.9899
vn 0.0000 0.8400 0.5425
vn -0.5936 0.5936 0.5435
vn -0.7067 -0.7067 0.0319
vn 0.0000 -0.9995 0.0317
vn -0.0966 -0.0966 0.9906
vn 0.5936 0.5936 0.5435
vn 0.9532 -0.0000 0.3025
vn 0.6738 -0.6738 0.3034
vn 0.9939 -0.0000 -0.1105
vn 0.0000 -0.9532 0.3025
vn 0.0000 -0.9939 -0.1105
vn 0.7028 -0.7028 -0.1107
vn -0.6738 -0.6738 0.3034
vn -0.9532 -0.0000 0.3025
vn -0.7457 0.0000 0.6662
vn -0.7028 -0.7028 -0.1107
vn -0.6738 0.6738 0.3034
vn 0.0000 0.9532 0.3025
vn -0.0000 0.9939 -0.1105
vn -0.7028 0.7028 -0.1107
vn 0.6738 0.6738 0.3034
vn 0.7028 0.7028 -0.1107
vn 0.5792 -0.5792 -0.5735
vn 0.8198 0.0000 -0.5726
vn 0.4157 -0.4157 -0.8089
vn 0.5888 0.0000 -0.8083
vn 0.0000 -0.8198 -0.5726
vn -0.5792 -0.5792 -0.5735
vn -0.4157 -0.4157 -0.8089
vn 0.0000 -0.5888 -0.8083
vn -0.8198 0.0000 -0.5726
vn -0.5792 0.5792 -0.5735
vn -0.4157 0.4157 -0.8089
vn -0.5888 0.0000 -0.8083
vn 0.0000 0.8198 -0.5726
vn 0.5792 0.5792 -0.5735
vn 0.4157 0.4157 -0.8089
vn 0.0000 0.5888 -0.8083
vn 0.2016 -0.2016 -0.9585
vn 0.2850 0.0000 -0.9585
vn 0.0000 0.0000 -1.0000
vn 0.0000 -0.2850 -0.9585
vn -0.2016 -0.2016 -0.9585
vn -0.2850 0.0000 -0.9585
vn -0.2016 0.2016 -0.9585
vn -0.0000 0.2850 -0.9585
vn 0.2016 0.2016 -0.9585
vn -0.0163 -0.9643 0.2642
vn 0.2491 0.0139 -0.9684
vn 0.0335 0.0031 -0.9994
vn 0.0100 -0.9855 0.1692
vn 0.9298 0.0411 -0.3658
vn -0.0450 -0.0014 0.9990
vn -0.4425 -0.0044 0.8967
vn -0.3032 -0.9457 0.1168
vn 0.0063 0.9849 0.1729
vn -0.2695 0.9575 0.1026
vn -0.9863 0.0032 0.1651
vn -0.0157 0.9654 0.2602
vn 0.8289 0.0134 0.5593
vn -0.1115 -0.9910 -0.0737
vn 0.6069 0.0290 0.7942
vn -0.7841 -0.0079 -0.6206
vn -0.3534 -0.7618 -0.5429
vn -0.3230 0.7878 -0.5244
vn -0.5545 -0.0076 -0.8321
vn -0.1021 0.9902 -0.0951
vn -0.4885 0.0072 0.8726
vn 0.2052 -0.9783 0.0282
vn -0.7440 -0.0236 0.6678
vn -0.6974 -0.0564 0.7144
vn 0.3245 -0.9129 -0.2475
vn 0.7848 0.0174 -0.6196
vn -0.0408 -0.9549 0.2940
vn 0.3423 0.9074 -0.2439
vn 0.6475 0.0025 -0.7621
vn 0.0592 0.9453 0.3207
vn 0.6035 0.1005 -0.7910
vn 0.1831 0.9830 -0.0165
vn 0.0307 -0.0671 0.9973
vn 0.3038 0.9495 -0.0791
vn 0.9551 -0.0142 -0.2960
vn 0.2492 -0.6252 0.7396
vn -0.3214 0.0029 0.9470
vn 0.4059 0.5303 0.7443
vn 0.8746 0.1337 0.4661
vn 0.3288 -0.9320 -0.1526
vn 0.6774 -0.6774 0.2870
vn 0.9576 0.0000 0.2882
vn 0.0000 -0.0000 1.0000
vn 0.5953 -0.5952 0.5398
vn 0.8433 -0.0003 0.5374
vn 0.0000 -0.9576 0.2882
vn -0.6774 -0.6774 0.2870
vn -0.5952 -0.5955 0.5396
vn -0.0004 -0.8436 0.5369
vn -0.9576 0.0000 0.2882
vn -0.6774 0.6774 0.2870
vn -0.5952 0.5952 0.5398
vn -0.8435 0.0000 0.5372
vn 0.0000 0.9576 0.2882
vn 0.6774 0.6774 0.2870
vn 0.5952 0.5955 0.5396
vn 0.0004 0.8436 0.5369
vn 0.2754 -0.0000 0.9613
vn 0.1942 -0.1942 0.9616
vn 0.3011 0.0000 0.9536
vn 0.0000 -0.2754 0.9613
vn -0.0000 -0.3011 0.9536
vn 0.2121 -0.2121 0.9539
vn -0.1942 -0.1942 0.9616
vn -0.2754 0.0000 0.9613
vn -0.3011 0.0000 0.9536
vn -0.2121 -0.2121 0.9539
vn -0.1942 0.1942 0.9616
vn 0.0000 0.2754 0.9613
vn 0.0000 0.3011 0.9536
vn -0.2121 0.2121 0.9539
vn 0.1942 0.1942 0.9616
vn 0.2121 0.2121 0.9539
usemtl None
s 1
f 2/1/1 4/2/2 1/3/3
f 3/4/4 6/5/5 4/2/2
f 2/1/1 8/6/6 3/4/4
f 3/4/4 9/7/7 5/8/8
f 7/9/9 11/10/10 8/6/6
f 8/6/6 12/11/11 9/7/7
f 10/12/12 14/13/13 11/10/10
f 11/10/10 15/14/14 12/11/11
f 16/15/15 14/16/13 13/17/16
f 17/18/17 15/19/14 14/16/13
f 16/15/15 20/20/18 17/18/17
f 17/18/17 21/21/19 18/22/20
f 22/23/21 20/20/18 19/24/22
f 23/25/23 21/21/19 20/20/18
f 22/23/21 4/26/2 23/25/23
f 23/25/23 6/27/5 24/28/24
f 5/8/8 26/29/25 6/5/5
f 25/30/26 28/31/27 26/29/25
f 5/8/8 29/32/28 25/30/26
f 25/30/26 30/33/29 27/34/30
f 12/11/11 29/32/28 9/7/7
f 31/35/31 30/33/29 29/32/28
f 12/11/11 33/36/32 31/35/31
f 31/35/31 34/37/33 32/38/34
f 18/22/20 33/39/32 15/19/14
f 35/40/35 34/41/33 33/39/32
f 18/22/20 37/42/36 35/40/35
f 35/40/35 38/43/37 36/44/38
f 24/28/24 37/42/36 21/21/19
f 39/45/39 38/43/37 37/42/36
f 24/28/24 26/46/25 39/45/39
f 39/45/39 28/47/27 40/48/40
f 28/31/27 41/49/41 42/50/42
f 42/50/42 43/51/43 44/52/44
f 30/33/29 41/49/41 27/34/30
f 45/53/45 43/51/43 41/49/41
f 30/33/29 47/54/46 45/53/45
f 45/53/45 48/55/47 46/56/48
f 34/37/33 47/54/46 32/38/34
f 49/57/49 48/55/47 47/54/46
f 34/41/33 51/58/50 49/59/49
f 49/59/49 52/60/51 50/61/52
f 38/43/37 51/58/50 36/44/38
f 53/62/53 52/60/51 51/58/50
f 38/43/37 55/63/54 53/62/53
f 53/62/53 56/64/55 54/65/56
f 28/47/27 55/63/54 40/48/40
f 42/66/42 56/64/55 55/63/54
f 44/52/44 57/67/57 58/68/58
f 58/68/58 57/67/57 59/69/59
f 46/56/48 57/67/57 43/51/43
f 57/67/57 60/70/60 59/71/59
f 46/56/48 61/72/61 60/70/60
f 60/70/60 61/72/61 59/73/59
f 50/74/52 61/72/61 48/55/47
f 61/72/61 62/75/62 59/76/59
f 50/61/52 63/77/63 62/78/62
f 62/78/62 63/77/63 59/69/59
f 54/65/56 63/77/63 52/60/51
f 63/77/63 64/79/64 59/71/59
f 54/65/56 65/80/65 64/79/64
f 64/79/64 65/80/65 59/73/59
f 44/81/44 65/80/65 56/64/55
f 65/80/65 58/82/58 59/76/59
f 67/83/66 69/84/67 66/85/68
f 68/86/69 71/87/70 69/84/67
f 72/88/71 68/86/69 67/83/66
f 73/89/72 70/90/73 68/86/69
f 72/88/71 76/91/74 73/89/72
f 73/89/72 77/92/75 74/93/76
f 75/94/77 69/95/67 76/91/74
f 76/91/74 71/96/70 77/92/75
f 70/90/73 79/97/78 71/87/70
f 78/98/79 34/99/80 79/97/78
f 70/90/73 81/100/81 78/98/79
f 81/100/81 80/101/82 78/98/79
f 77/92/75 81/100/81 74/93/76
f 81/100/81 84/102/83 82/103/84
f 77/92/75 79/104/78 83/105/85
f 83/105/85 34/106/80 84/102/83
f 85/107/86 87/108/87 88/109/88
f 87/108/87 90/110/89 88/109/88
f 86/111/90 92/112/91 87/108/87
f 92/112/91 89/113/92 87/108/87
f 94/114/93 92/115/91 91/116/94
f 92/115/91 96/117/95 93/118/96
f 85/107/86 95/119/97 94/114/93
f 95/119/97 90/110/89 96/117/95
f 89/113/92 98/120/98 90/110/89
f 98/120/98 99/121/99 100/122/100
f 93/123/96 97/124/101 89/113/92
f 97/124/101 102/125/102 99/121/99
f 93/118/96 103/126/103 101/127/104
f 103/126/103 102/128/102 101/127/104
f 96/117/95 98/120/98 103/126/103
f 98/120/98 104/129/105 103/126/103
f 105/130/106 106/131/107 107/132/108
f 106/131/107 108/133/109 109/134/110
f 110/135/111 105/130/106 107/136/108
f 110/135/111 108/133/109 105/130/106
f 112/137/112 110/135/111 107/138/108
f 110/135/111 113/139/113 111/140/114
f 114/141/115 112/137/112 107/142/108
f 114/141/115 113/139/113 112/137/112
f 116/143/116 114/144/115 107/132/108
f 114/144/115 117/145/117 115/146/118
f 118/147/119 116/143/116 107/136/108
f 118/147/119 117/145/117 116/143/116
f 120/148/120 118/147/119 107/138/108
f 118/147/119 121/149/121 119/150/122
f 106/151/107 120/148/120 107/142/108
f 106/151/107 121/149/121 120/148/120
f 108/152/109 123/153/123 109/154/110
f 122/155/124 125/156/125 123/153/123
f 108/152/109 126/157/126 122/155/124
f 122/155/124 127/158/127 124/159/128
f 113/160/113 126/157/126 111/161/114
f 128/162/129 127/158/127 126/157/126
f 113/160/113 130/163/130 128/162/129
f 128/162/129 131/164/131 129/165/132
f 117/166/117 130/167/130 115/168/118
f 132/169/133 131/170/131 130/167/130
f 117/166/117 134/171/134 132/169/133
f 132/169/133 135/172/135 133/173/136
f 121/174/121 134/171/134 119/175/122
f 136/176/137 135/172/135 134/171/134
f 121/174/121 123/177/123 136/176/137
f 136/176/137 125/178/125 137/179/138
f 2/1/1 3/4/4 4/2/2
f 3/4/4 5/8/8 6/5/5
f 2/1/1 7/9/9 8/6/6
f 3/4/4 8/6/6 9/7/7
f 7/9/9 10/12/12 11/10/10
f 8/6/6 11/10/10 12/11/11
f 10/12/12 13/180/16 14/13/13
f 11/10/10 14/13/13 15/14/14
f 16/15/15 17/18/17 14/16/13
f 17/18/17 18/22/20 15/19/14
f 16/15/15 19/24/22 20/20/18
f 17/18/17 20/20/18 21/21/19
f 22/23/21 23/25/23 20/20/18
f 23/25/23 24/28/24 21/21/19
f 22/23/21 1/181/3 4/26/2
f 23/25/23 4/26/2 6/27/5
f 5/8/8 25/30/26 26/29/25
f 25/30/26 27/34/30 28/31/27
f 5/8/8 9/7/7 29/32/28
f 25/30/26 29/32/28 30/33/29
f 12/11/11 31/35/31 29/32/28
f 31/35/31 32/38/34 30/33/29
f 12/11/11 15/14/14 33/36/32
f 31/35/31 33/36/32 34/37/33
f 18/22/20 35/40/35 33/39/32
f 35/40/35 36/44/38 34/41/33
f 18/22/20 21/21/19 37/42/36
f 35/40/35 37/42/36 38/43/37
f 24/28/24 39/45/39 37/42/36
f 39/45/39 40/48/40 38/43/37
f 24/28/24 6/27/5 26/46/25
f 39/45/39 26/46/25 28/47/27
f 28/31/27 27/34/30 41/49/41
f 42/50/42 41/49/41 43/51/43
f 30/33/29 45/53/45 41/49/41
f 45/53/45 46/56/48 43/51/43
f 30/33/29 32/38/34 47/54/46
f 45/53/45 47/54/46 48/55/47
f 34/37/33 49/57/49 47/54/46
f 49/57/49 50/74/52 48/55/47
f 34/41/33 36/44/38 51/58/50
f 49/59/49 51/58/50 52/60/51
f 38/43/37 53/62/53 51/58/50
f 53/62/53 54/65/56 52/60/51
f 38/43/37 40/48/40 55/63/54
f 53/62/53 55/63/54 56/64/55
f 28/47/27 42/66/42 55/63/54
f 42/66/42 44/81/44 56/64/55
f 44/52/44 43/51/43 57/67/57
f 46/56/48 60/70/60 57/67/57
f 46/56/48 48/55/47 61/72/61
f 50/74/52 62/75/62 61/72/61
f 50/61/52 52/60/51 63/77/63
f 54/65/56 64/79/64 63/77/63
f 54/65/56 56/64/55 65/80/65
f 44/81/44 58/82/58 65/80/65
f 67/83/66 68/86/69 69/84/67
f 68/86/69 70/90/73 71/87/70
f 72/88/71 73/89/72 68/86/69
f 73/89/72 74/93/76 70/90/73
f 72/88/71 75/94/77 76/91/74
f 73/89/72 76/91/74 77/92/75
f 75/94/77 66/182/68 69/95/67
f 76/91/74 69/95/67 71/96/70
f 70/90/73 78/98/79 79/97/78
f 78/98/79 80/101/82 34/99/80
f 70/90/73 74/93/76 81/100/81
f 81/100/81 82/103/84 80/101/82
f 77/92/75 83/105/85 81/100/81
f 81/100/81 83/105/85 84/102/83
f 77/92/75 71/96/70 79/104/78
f 83/105/85 79/104/78 34/106/80
f 85/107/86 86/111/90 87/108/87
f 87/108/87 89/113/92 90/110/89
f 86/111/90 91/183/94 92/112/91
f 92/112/91 93/123/96 89/113/92
f 94/114/93 95/119/97 92/115/91
f 92/115/91 95/119/97 96/117/95
f 85/107/86 88/109/88 95/119/97
f 95/119/97 88/109/88 90/110/89
f 89/113/92 97/124/101 98/120/98
f 98/120/98 97/124/101 99/121/99
f 93/123/96 101/184/104 97/124/101
f 97/124/101 101/184/104 102/125/102
f 93/118/96 96/117/95 103/126/103
f 103/126/103 104/129/105 102/128/102
f 96/117/95 90/110/89 98/120/98
f 98/120/98 100/122/100 104/129/105
f 106/131/107 105/130/106 108/133/109
f 110/135/111 111/140/114 108/133/109
f 110/135/111 112/137/112 113/139/113
f 114/141/115 115/185/118 113/139/113
f 114/144/115 116/143/116 117/145/117
f 118/147/119 119/150/122 117/145/117
f 118/147/119 120/148/120 121/149/121
f 106/151/107 109/186/110 121/149/121
f 108/152/109 122/155/124 123/153/123
f 122/155/124 124/159/128 125/156/125
f 108/152/109 111/161/114 126/157/126
f 122/155/124 126/157/126 127/158/127
f 113/160/113 128/162/129 126/157/126
f 128/162/129 129/165/132 127/158/127
f 113/160/113 115/187/118 130/163/130
f 128/162/129 130/163/130 131/164/131
f 117/166/117 132/169/133 130/167/130
f 132/169/133 133/173/136 131/170/131
f 117/166/117 119/175/122 134/171/134
f 132/169/133 134/171/134 135/172/135
f 121/174/121 136/176/137 134/171/134
f 136/176/137 137/179/138 135/172/135
f 121/174/121 109/188/110 123/177/123
f 136/176/137 123/177/123 125/178/125
o Cube
v 1.000000 -1.000000 -1.000000
v 1.000000 -1.000000 1.000000
v -1.000000 -1.000000 1.000000
v -1.000000 -1.000000 -1.000000
v 1.000000 1.000000 -0.999999
v 0.999999 1.000000 1.000001
v -1.000000 1.000000 1.000000
v -1.000000 1.000000 -1.000000
vn 0.0000 -1.0000 0.0000
vn 0.0000 1.0000 0.0000
vn 1.0000 0.0000 0.0000
vn -0.0000 -0.0000 1.0000
vn -1.0000 -0.0000 -0.0000
vn 0.0000 0.0000 -1.0000
usemtl Material
s off
f 138//139 139//139 140//139 141//139
f 142//140 145//140 144//140 143//140
f 138//141 142//141 143//141 139//141
f 139//142 143//142 144//142 140//142
f 140//143 144//143 145//143 141//143
f 142//144 138//144 141//144 145//144
